<svg version="1.1"
	 xmlns="http://www.w3.org/2000/svg" xmlns:xlink="http://www.w3.org/1999/xlink" xmlns:a="http://ns.adobe.com/AdobeSVGViewerExtensions/3.0/"
	 x="0px" y="0px" width="168.5px" height="36.2px" viewBox="0 0 168.5 36.2" style="enable-background:new 0 0 168.5 36.2;"
	 xml:space="preserve">
<style type="text/css">
	.st0{fill:#042238;}
	.st1{fill:#0080FF;stroke:#0080FF;stroke-width:2;}
	.st2{fill:#0080FF;}
	.st3{fill:none;stroke:#0080FF;}
</style>
<defs>
</defs>
<g id="Layout_x2F_Desktop_1_" transform="translate(-215.000000, -15.000000)">
	<g id="Group_1_" transform="translate(216.000000, 16.000000)">
		<path id="LOCHA_1_" class="st0" d="M45.4,29.2V5.1c0-1.1,0.8-1.6,1.8-1.6C48.3,3.4,49,3.9,49,5v23.5c0,0.9,0.5,1.3,1.4,1.3h13.5
			c1,0,1.6,0.7,1.6,1.7c0,0.9-0.6,1.7-1.6,1.7H49.3C46.6,33.3,45.4,32.1,45.4,29.2z M76.1,3.1c8.1,0,13.2,6,13.2,15.4
			c0,9.3-5.1,15.4-13.2,15.4s-13.3-6-13.3-15.4C62.8,9.1,67.9,3.1,76.1,3.1z M76.1,6.4c-5.9,0-9.5,4.8-9.5,12.1s3.7,12.1,9.5,12.1
			c5.9,0,9.5-4.7,9.5-12.3C85.6,11.1,81.9,6.4,76.1,6.4z M103.2,3.1c6.7,0,9.7,3.5,11.1,6.8c0.1,0.3,0.2,0.5,0.2,0.8
			c0,0.8-0.6,1.3-1.2,1.5c-0.3,0.1-0.6,0.2-0.9,0.2c-0.6,0-1.3-0.3-1.6-1c-1.1-2.7-3-5-7.4-5c-5.7,0-9.5,4.6-9.5,12.1
			c0,7.3,3.8,12,9.5,12c4.6,0,6.7-2.7,7.7-5.8c0.3-0.8,1-1.2,1.7-1.2c0.2,0,0.5,0,0.8,0.1c0.6,0.2,1.3,0.7,1.3,1.5
			c0,0.2,0,0.4-0.1,0.6c-1.3,3.8-4.5,8-11.3,8c-8.2,0-13.4-6-13.4-15.4C90.1,9.2,95.3,3.1,103.2,3.1z M136.2,16.1V5
			c0-1.1,0.8-1.6,1.9-1.6c1,0,1.7,0.5,1.7,1.6v26.9c0,1-0.8,1.6-1.7,1.6c-1.1,0-1.9-0.5-1.9-1.6V19.4H120v12.6c0,1-0.8,1.6-1.8,1.6
			c-1.1,0-1.8-0.5-1.8-1.6V5c0-1.1,0.8-1.6,1.8-1.6c1,0,1.8,0.5,1.8,1.6v11.1H136.2z M147.7,24.6l-2.9,7.8c-0.3,0.8-0.8,1.1-1.5,1.1
			c-0.3,0-0.5,0-0.8-0.1c-0.8-0.2-1.3-0.8-1.3-1.6c0-0.2,0-0.4,0.1-0.6l10.3-26c0.5-1.3,1.4-1.8,2.6-1.8c1.2,0,2.2,0.5,2.7,1.8
			l10.3,26c0.1,0.2,0.2,0.4,0.2,0.6c0,0.8-0.6,1.3-1.4,1.5c-0.2,0.1-0.5,0.1-0.7,0.1c-0.7,0-1.3-0.3-1.6-1.1l-3-7.9H147.7z
			 M148.9,21.4h10.9l-4.2-11.1c-0.4-1.1-0.8-2.3-1.2-3.6c-0.3,1.3-0.7,2.5-1.2,3.6L148.9,21.4z"/>
		<g id="Group-3-Copy-2_1_">
			<path id="_x32_-copy-7_1_" class="st1" d="M13.6,30.9H32c1.1,0,1.2,0.9,1.2,1.9S33,34.2,32,34.2H9c-1.7,0,0-0.3,0-2.1
				c0-1.5,1-3.7,1.7-5c1.6-3,4.3-5.7,8.5-8.4l3.1-2c4.4-2.8,6.2-4.5,6.2-7.8c0-3.2-2.8-5.2-7-5.2c-2.2,0-6.2,0.7-8,2.4
				c-2.4,2.4-2.4,6.2-2.9,7.9c-0.3,1-0.3-0.5-1.2-0.5c-0.2,0,0.2-1.8,0-1.9c-1-0.2,0-1.6,0-2.5c0-0.2,0-0.4,0.1-0.7
				c0.4-1.9,1.4-3.8,2.9-5.3c2-1.9,4.6-3.3,9-3.3c6.8,0,11.3,3.6,11.3,9.1c0,5.3-3.4,7.7-7.5,10.2l-2.9,1.7
				C17.5,24.1,14.6,27,13.6,30.9z"/>
			<path id="_x31_-copy-7_1_" class="st1" d="M12.1,3.7l-0.2,29.1c0,1.3-0.9,1.3-2.1,1.3c-1.3,0-2.2,0-2.2-1.3V6.2
				c0-1-0.2-1.3-1.2-1.3H6.3L2.1,5H2C0.8,5,0,4.1,0,3c0-1.2,0.8-2.1,2-2.2l5.8-0.1h0.4C11.1,0.7,12.1,0.5,12.1,3.7z"/>
			<g id="Rectangle-Copy-3_1_">
				<g>
					<path id="path-1_1_" class="st2" d="M1.8,13h32.3c1,0,1.8,1,1.8,2.3s-0.8,2.3-1.8,2.3H1.8c-1,0-1.8-1-1.8-2.3S0.8,13,1.8,13z"
						/>
				</g>
				<path class="st3" d="M1.8,13.5c-0.7,0-1.3,0.8-1.3,1.8s0.6,1.8,1.3,1.8h32.3c0.7,0,1.3-0.8,1.3-1.8s-0.6-1.8-1.3-1.8H1.8z"/>
			</g>
			<g id="Rectangle-Copy-6_1_">
				<g>
					<path id="path-2_1_" class="st2" d="M1.8,20h32.3c1,0,1.8,1,1.8,2.3c0,1.3-0.8,2.3-1.8,2.3H1.8c-1,0-1.8-1-1.8-2.3
						C0,21,0.8,20,1.8,20z"/>
				</g>
				<path class="st3" d="M1.8,20.5c-0.7,0-1.3,0.8-1.3,1.8c0,1,0.6,1.8,1.3,1.8h32.3c0.7,0,1.3-0.8,1.3-1.8c0-1-0.6-1.8-1.3-1.8H1.8
					z"/>
			</g>
		</g>
	</g>
</g>
</svg>