<?xml version="1.0" encoding="UTF-8"?>
<svg width="482px" height="157px" viewBox="0 0 482 157" version="1.1" xmlns="http://www.w3.org/2000/svg" xmlns:xlink="http://www.w3.org/1999/xlink">
    <!-- Generator: Sketch 48.2 (47327) - http://www.bohemiancoding.com/sketch -->
    <title>Group 4</title>
    <desc>Created with Sketch.</desc>
    <defs></defs>
    <g id="Layout/Desktop-Copy" stroke="none" stroke-width="1" fill="none" fill-rule="evenodd" transform="translate(0.000000, -275.000000)" opacity="0.3">
        <g id="Group-4" transform="translate(0.000000, 275.000000)" fill-rule="nonzero">
            <g id="Group-3">
                <g id="arepa-copy" transform="translate(204.000000, 0.000000)" fill="#FFFFFF">
                    <path d="M35.8731707,17.9414634 C35.8731707,8.04878049 27.8243902,0 17.9414634,0 C8.04878049,0 1.08314441e-17,8.04878049 1.08314441e-17,17.9414634 C1.08314441e-17,18.6829268 0.0487804878,19.4146341 0.136585366,20.1463415 L0.0975609756,20.1463415 C0.0292682927,20.7707317 0,21.404878 0,22.0292683 C0,31.9219512 8.04878049,39.9707317 17.9414634,39.9707317 C27.8341463,39.9707317 35.8829268,31.9219512 35.8829268,22.0292683 C35.8829268,21.3365854 35.8439024,20.6536585 35.7658537,19.9804878 C35.8341463,19.3073171 35.8731707,18.6146341 35.8731707,17.9414634 Z M17.9414634,38.595122 C10.0780488,38.595122 3.47317073,33.0926829 1.78536585,25.7268293 C2.8097561,27.8536585 4.26341463,29.7756098 6.06829268,31.3756098 C9.34634146,34.2731707 13.5609756,35.8731707 17.9414634,35.8731707 C24.9853659,35.8731707 31.1707317,31.7853659 34.097561,25.7560976 C32.3902439,33.102439 25.795122,38.595122 17.9414634,38.595122 Z M34.4,19.8341463 L34.3707317,19.8341463 C34.3804878,19.8829268 34.3804878,19.9219512 34.3902439,19.9707317 C33.3756098,28.2634146 26.3121951,34.5073171 17.9414634,34.5073171 C13.8926829,34.5073171 10,33.0341463 6.96585366,30.3512195 C3.96097561,27.697561 2.0195122,24.0585366 1.50243902,20.1073171 C1.40487805,19.395122 1.36585366,18.6634146 1.36585366,17.9317073 C1.36585366,8.8 8.8,1.36585366 17.9414634,1.36585366 C27.0829268,1.36585366 34.5170732,8.8 34.5170732,17.9414634 C34.5073171,18.5756098 34.4780488,19.2097561 34.4,19.8341463 Z" id="Shape"></path>
                    <path d="M7.38536585,13.395122 L8.96585366,13.395122 C9.15121951,13.395122 9.30731707,13.5512195 9.30731707,13.7365854 L9.30731707,14.4097561 C9.30731707,14.595122 9.15121951,14.7512195 8.96585366,14.7512195 L7.38536585,14.7512195 C7.2,14.7512195 7.04390244,14.595122 7.04390244,14.4097561 L7.04390244,13.7365854 C7.03414634,13.5512195 7.1902439,13.395122 7.38536585,13.395122 Z" id="Shape"></path>
                    <path d="M10.097561,8.85853659 L11.697561,8.85853659 C11.8829268,8.85853659 12.0292683,9.00487805 12.0292683,9.1902439 L12.0292683,9.88292683 C12.0292683,10.0682927 11.8829268,10.2146341 11.697561,10.2146341 L10.097561,10.2146341 C9.91219512,10.2146341 9.76585366,10.0682927 9.76585366,9.88292683 L9.76585366,9.1902439 C9.76585366,9.00487805 9.91219512,8.85853659 10.097561,8.85853659 Z" id="Shape"></path>
                    <path d="M12.897561,12.5463415 L14.4780488,12.5463415 C14.6634146,12.5463415 14.8195122,12.702439 14.8195122,12.8878049 L14.8195122,13.5609756 C14.8195122,13.7463415 14.6634146,13.902439 14.4780488,13.902439 L12.897561,13.902439 C12.7121951,13.902439 12.5560976,13.7463415 12.5560976,13.5609756 L12.5560976,12.8878049 C12.5560976,12.6926829 12.7121951,12.5463415 12.897561,12.5463415 Z" id="Shape"></path>
                    <path d="M15.6195122,8 L17.2195122,8 C17.404878,8 17.5512195,8.14634146 17.5512195,8.33170732 L17.5512195,9.02439024 C17.5512195,9.2097561 17.404878,9.35609756 17.2195122,9.35609756 L15.6195122,9.35609756 C15.4341463,9.35609756 15.2878049,9.2097561 15.2878049,9.02439024 L15.2878049,8.33170732 C15.2878049,8.15609756 15.4341463,8 15.6195122,8 Z" id="Shape"></path>
                </g>
                <g id="arepa-copy-2" transform="translate(101.000000, 97.000000)" fill="#FFFFFF">
                    <path d="M35.8731707,17.9414634 C35.8731707,8.04878049 27.8243902,0 17.9414634,0 C8.04878049,0 1.08314441e-17,8.04878049 1.08314441e-17,17.9414634 C1.08314441e-17,18.6829268 0.0487804878,19.4146341 0.136585366,20.1463415 L0.0975609756,20.1463415 C0.0292682927,20.7707317 0,21.404878 0,22.0292683 C0,31.9219512 8.04878049,39.9707317 17.9414634,39.9707317 C27.8341463,39.9707317 35.8829268,31.9219512 35.8829268,22.0292683 C35.8829268,21.3365854 35.8439024,20.6536585 35.7658537,19.9804878 C35.8341463,19.3073171 35.8731707,18.6146341 35.8731707,17.9414634 Z M17.9414634,38.595122 C10.0780488,38.595122 3.47317073,33.0926829 1.78536585,25.7268293 C2.8097561,27.8536585 4.26341463,29.7756098 6.06829268,31.3756098 C9.34634146,34.2731707 13.5609756,35.8731707 17.9414634,35.8731707 C24.9853659,35.8731707 31.1707317,31.7853659 34.097561,25.7560976 C32.3902439,33.102439 25.795122,38.595122 17.9414634,38.595122 Z M34.4,19.8341463 L34.3707317,19.8341463 C34.3804878,19.8829268 34.3804878,19.9219512 34.3902439,19.9707317 C33.3756098,28.2634146 26.3121951,34.5073171 17.9414634,34.5073171 C13.8926829,34.5073171 10,33.0341463 6.96585366,30.3512195 C3.96097561,27.697561 2.0195122,24.0585366 1.50243902,20.1073171 C1.40487805,19.395122 1.36585366,18.6634146 1.36585366,17.9317073 C1.36585366,8.8 8.8,1.36585366 17.9414634,1.36585366 C27.0829268,1.36585366 34.5170732,8.8 34.5170732,17.9414634 C34.5073171,18.5756098 34.4780488,19.2097561 34.4,19.8341463 Z" id="Shape"></path>
                    <path d="M7.38536585,13.395122 L8.96585366,13.395122 C9.15121951,13.395122 9.30731707,13.5512195 9.30731707,13.7365854 L9.30731707,14.4097561 C9.30731707,14.595122 9.15121951,14.7512195 8.96585366,14.7512195 L7.38536585,14.7512195 C7.2,14.7512195 7.04390244,14.595122 7.04390244,14.4097561 L7.04390244,13.7365854 C7.03414634,13.5512195 7.1902439,13.395122 7.38536585,13.395122 Z" id="Shape"></path>
                    <path d="M10.097561,8.85853659 L11.697561,8.85853659 C11.8829268,8.85853659 12.0292683,9.00487805 12.0292683,9.1902439 L12.0292683,9.88292683 C12.0292683,10.0682927 11.8829268,10.2146341 11.697561,10.2146341 L10.097561,10.2146341 C9.91219512,10.2146341 9.76585366,10.0682927 9.76585366,9.88292683 L9.76585366,9.1902439 C9.76585366,9.00487805 9.91219512,8.85853659 10.097561,8.85853659 Z" id="Shape"></path>
                    <path d="M12.897561,12.5463415 L14.4780488,12.5463415 C14.6634146,12.5463415 14.8195122,12.702439 14.8195122,12.8878049 L14.8195122,13.5609756 C14.8195122,13.7463415 14.6634146,13.902439 14.4780488,13.902439 L12.897561,13.902439 C12.7121951,13.902439 12.5560976,13.7463415 12.5560976,13.5609756 L12.5560976,12.8878049 C12.5560976,12.6926829 12.7121951,12.5463415 12.897561,12.5463415 Z" id="Shape"></path>
                    <path d="M15.6195122,8 L17.2195122,8 C17.404878,8 17.5512195,8.14634146 17.5512195,8.33170732 L17.5512195,9.02439024 C17.5512195,9.2097561 17.404878,9.35609756 17.2195122,9.35609756 L15.6195122,9.35609756 C15.4341463,9.35609756 15.2878049,9.2097561 15.2878049,9.02439024 L15.2878049,8.33170732 C15.2878049,8.15609756 15.4341463,8 15.6195122,8 Z" id="Shape"></path>
                </g>
                <g id="arepa-copy-4" transform="translate(0.000000, 20.000000)" fill="#FFFFFF">
                    <path d="M35.8731707,17.9414634 C35.8731707,8.04878049 27.8243902,0 17.9414634,0 C8.04878049,0 1.08314441e-17,8.04878049 1.08314441e-17,17.9414634 C1.08314441e-17,18.6829268 0.0487804878,19.4146341 0.136585366,20.1463415 L0.0975609756,20.1463415 C0.0292682927,20.7707317 0,21.404878 0,22.0292683 C0,31.9219512 8.04878049,39.9707317 17.9414634,39.9707317 C27.8341463,39.9707317 35.8829268,31.9219512 35.8829268,22.0292683 C35.8829268,21.3365854 35.8439024,20.6536585 35.7658537,19.9804878 C35.8341463,19.3073171 35.8731707,18.6146341 35.8731707,17.9414634 Z M17.9414634,38.595122 C10.0780488,38.595122 3.47317073,33.0926829 1.78536585,25.7268293 C2.8097561,27.8536585 4.26341463,29.7756098 6.06829268,31.3756098 C9.34634146,34.2731707 13.5609756,35.8731707 17.9414634,35.8731707 C24.9853659,35.8731707 31.1707317,31.7853659 34.097561,25.7560976 C32.3902439,33.102439 25.795122,38.595122 17.9414634,38.595122 Z M34.4,19.8341463 L34.3707317,19.8341463 C34.3804878,19.8829268 34.3804878,19.9219512 34.3902439,19.9707317 C33.3756098,28.2634146 26.3121951,34.5073171 17.9414634,34.5073171 C13.8926829,34.5073171 10,33.0341463 6.96585366,30.3512195 C3.96097561,27.697561 2.0195122,24.0585366 1.50243902,20.1073171 C1.40487805,19.395122 1.36585366,18.6634146 1.36585366,17.9317073 C1.36585366,8.8 8.8,1.36585366 17.9414634,1.36585366 C27.0829268,1.36585366 34.5170732,8.8 34.5170732,17.9414634 C34.5073171,18.5756098 34.4780488,19.2097561 34.4,19.8341463 Z" id="Shape"></path>
                    <path d="M7.38536585,13.395122 L8.96585366,13.395122 C9.15121951,13.395122 9.30731707,13.5512195 9.30731707,13.7365854 L9.30731707,14.4097561 C9.30731707,14.595122 9.15121951,14.7512195 8.96585366,14.7512195 L7.38536585,14.7512195 C7.2,14.7512195 7.04390244,14.595122 7.04390244,14.4097561 L7.04390244,13.7365854 C7.03414634,13.5512195 7.1902439,13.395122 7.38536585,13.395122 Z" id="Shape"></path>
                    <path d="M10.097561,8.85853659 L11.697561,8.85853659 C11.8829268,8.85853659 12.0292683,9.00487805 12.0292683,9.1902439 L12.0292683,9.88292683 C12.0292683,10.0682927 11.8829268,10.2146341 11.697561,10.2146341 L10.097561,10.2146341 C9.91219512,10.2146341 9.76585366,10.0682927 9.76585366,9.88292683 L9.76585366,9.1902439 C9.76585366,9.00487805 9.91219512,8.85853659 10.097561,8.85853659 Z" id="Shape"></path>
                    <path d="M12.897561,12.5463415 L14.4780488,12.5463415 C14.6634146,12.5463415 14.8195122,12.702439 14.8195122,12.8878049 L14.8195122,13.5609756 C14.8195122,13.7463415 14.6634146,13.902439 14.4780488,13.902439 L12.897561,13.902439 C12.7121951,13.902439 12.5560976,13.7463415 12.5560976,13.5609756 L12.5560976,12.8878049 C12.5560976,12.6926829 12.7121951,12.5463415 12.897561,12.5463415 Z" id="Shape"></path>
                    <path d="M15.6195122,8 L17.2195122,8 C17.404878,8 17.5512195,8.14634146 17.5512195,8.33170732 L17.5512195,9.02439024 C17.5512195,9.2097561 17.404878,9.35609756 17.2195122,9.35609756 L15.6195122,9.35609756 C15.4341463,9.35609756 15.2878049,9.2097561 15.2878049,9.02439024 L15.2878049,8.33170732 C15.2878049,8.15609756 15.4341463,8 15.6195122,8 Z" id="Shape"></path>
                </g>
                <g id="bird" transform="translate(177.000000, 84.000000)">
                    <path d="M12.5793103,1.53103448 C8.51034483,1.53103448 5.1862069,4.85517241 5.1862069,8.92413793 C5.1862069,12.9931034 8.51034483,16.3172414 12.5793103,16.3172414 C16.662069,16.3172414 19.9724138,12.9931034 19.9724138,8.92413793 C19.9724138,4.84137931 16.6482759,1.53103448 12.5793103,1.53103448 Z" id="Shape" fill="#FFFFFF"></path>
                    <path d="M44.2068966,28.7724138 C43.2,27.7517241 19.462069,3.84827586 18.0413793,2.46896552 C16.4413793,0.896551724 14.3172414,0.0413793103 12.0689655,0.0413793103 C8.0137931,0.0413793103 4.60689655,2.88275862 3.73793103,6.67586207 L0.482758621,8.30344828 C0.193103448,8.45517241 0,8.75862069 0,9.08965517 C0,9.42068966 0.193103448,9.72413793 0.482758621,9.87586207 L4.0137931,11.6413793 C4.04137931,11.6551724 4.06896552,11.6689655 4.11034483,11.6827586 C4.4,12.4 4.77241379,13.0896552 5.25517241,13.7241379 C6.13793103,14.8965517 7.32413793,15.8206897 8.66206897,16.4137931 C8.02758621,17.8896552 7.71034483,19.5034483 7.71034483,21.1172414 C7.71034483,27.7517241 13.1034483,33.1448276 19.737931,33.1448276 C19.9172414,33.1448276 20.1103448,33.1448276 20.2896552,33.1310345 L20.2896552,38.2068966 L15.8758621,38.2068966 C15.3931034,38.2068966 14.9931034,38.6068966 14.9931034,39.0896552 C14.9931034,39.5724138 15.3931034,39.9724138 15.8758621,39.9724138 L22.937931,39.9724138 C23.4206897,39.9724138 23.8206897,39.5724138 23.8206897,39.0896552 C23.8206897,38.6068966 23.4206897,38.2068966 22.937931,38.2068966 L22.0689655,38.2068966 L22.0689655,32.9103448 C24.0827586,32.5103448 25.9862069,31.6 27.5586207,30.2482759 L43.5862069,30.2482759 C43.9448276,30.2482759 44.262069,30.0275862 44.4,29.7103448 C44.537931,29.4068966 44.4689655,29.0206897 44.2068966,28.7724138 Z M2.85517241,9.08965517 L3.53103448,8.74482759 C3.53103448,8.97931034 3.54482759,9.2137931 3.57241379,9.44827586 L2.85517241,9.08965517 Z M27.5724138,28.5103448 C27.5448276,28.5103448 27.5034483,28.5103448 27.4758621,28.5103448 L22.8413793,28.5103448 C20.1931034,28.5103448 17.7103448,27.2137931 16.2068966,25.0344828 C15.9310345,24.6344828 15.3793103,24.537931 14.9793103,24.8137931 C14.5793103,25.0896552 14.4827586,25.6413793 14.7586207,26.0413793 C16.5931034,28.7034483 19.6137931,30.2896552 22.8413793,30.2896552 L24.4137931,30.2896552 C22.9793103,31.0206897 21.3793103,31.4206897 19.737931,31.4206897 C14.0689655,31.4206897 9.47586207,26.8137931 9.47586207,21.1586207 C9.47586207,19.4896552 9.88965517,17.8344828 10.662069,16.3724138 C10.7862069,16.137931 10.8,15.862069 10.6896552,15.6137931 C10.5931034,15.3655172 10.3862069,15.1862069 10.1241379,15.1034483 C7.28275862,14.2482759 5.28275862,11.5862069 5.28275862,8.60689655 C5.29655172,4.84137931 8.34482759,1.79310345 12.0827586,1.79310345 C13.862069,1.79310345 15.5448276,2.48275862 16.8137931,3.72413793 C18.0137931,4.89655172 36.0965517,23.0896552 41.462069,28.5103448 L27.5724138,28.5103448 Z" id="Shape" fill="#FFFFFF"></path>
                    <path d="M9.71034483,5.55862069 C8.73103448,5.55862069 7.94482759,6.34482759 7.94482759,7.32413793 C7.94482759,8.30344828 8.73103448,9.08965517 9.71034483,9.08965517 C10.6896552,9.08965517 11.4758621,8.30344828 11.4758621,7.32413793 C11.4758621,6.35862069 10.6896552,5.55862069 9.71034483,5.55862069 Z" id="Shape" fill="#000000"></path>
                    <path d="M14.7862069,20.4413793 C14.7862069,19.9586207 14.3862069,19.5586207 13.9034483,19.5586207 C13.4206897,19.5586207 13.0206897,19.9586207 13.0206897,20.4413793 C13.0206897,21.1724138 13.1034483,21.9172414 13.2689655,22.6206897 C13.3655172,23.0344828 13.7241379,23.3103448 14.1241379,23.3103448 C14.1931034,23.3103448 14.2482759,23.2965517 14.3172414,23.2827586 C14.7862069,23.1724138 15.0896552,22.7034483 14.9793103,22.2206897 C14.8551724,21.6551724 14.7862069,21.0482759 14.7862069,20.4413793 Z" id="Shape" fill="#FFFFFF"></path>
                    <polygon id="Shape" fill="#FFFFFF" points="19.8758621 10.0965517 39.3517241 28.5103448 41.462069 28.5103448 19.5448276 6.45517241"></polygon>
                </g>
                <g id="bird-copy-2" transform="translate(114.500000, 40.000000) scale(-1, 1) translate(-114.500000, -40.000000) translate(92.000000, 20.000000)">
                    <path d="M12.5793103,1.53103448 C8.51034483,1.53103448 5.1862069,4.85517241 5.1862069,8.92413793 C5.1862069,12.9931034 8.51034483,16.3172414 12.5793103,16.3172414 C16.662069,16.3172414 19.9724138,12.9931034 19.9724138,8.92413793 C19.9724138,4.84137931 16.6482759,1.53103448 12.5793103,1.53103448 Z" id="Shape" fill="#FFFFFF"></path>
                    <path d="M44.2068966,28.7724138 C43.2,27.7517241 19.462069,3.84827586 18.0413793,2.46896552 C16.4413793,0.896551724 14.3172414,0.0413793103 12.0689655,0.0413793103 C8.0137931,0.0413793103 4.60689655,2.88275862 3.73793103,6.67586207 L0.482758621,8.30344828 C0.193103448,8.45517241 0,8.75862069 0,9.08965517 C0,9.42068966 0.193103448,9.72413793 0.482758621,9.87586207 L4.0137931,11.6413793 C4.04137931,11.6551724 4.06896552,11.6689655 4.11034483,11.6827586 C4.4,12.4 4.77241379,13.0896552 5.25517241,13.7241379 C6.13793103,14.8965517 7.32413793,15.8206897 8.66206897,16.4137931 C8.02758621,17.8896552 7.71034483,19.5034483 7.71034483,21.1172414 C7.71034483,27.7517241 13.1034483,33.1448276 19.737931,33.1448276 C19.9172414,33.1448276 20.1103448,33.1448276 20.2896552,33.1310345 L20.2896552,38.2068966 L15.8758621,38.2068966 C15.3931034,38.2068966 14.9931034,38.6068966 14.9931034,39.0896552 C14.9931034,39.5724138 15.3931034,39.9724138 15.8758621,39.9724138 L22.937931,39.9724138 C23.4206897,39.9724138 23.8206897,39.5724138 23.8206897,39.0896552 C23.8206897,38.6068966 23.4206897,38.2068966 22.937931,38.2068966 L22.0689655,38.2068966 L22.0689655,32.9103448 C24.0827586,32.5103448 25.9862069,31.6 27.5586207,30.2482759 L43.5862069,30.2482759 C43.9448276,30.2482759 44.262069,30.0275862 44.4,29.7103448 C44.537931,29.4068966 44.4689655,29.0206897 44.2068966,28.7724138 Z M2.85517241,9.08965517 L3.53103448,8.74482759 C3.53103448,8.97931034 3.54482759,9.2137931 3.57241379,9.44827586 L2.85517241,9.08965517 Z M27.5724138,28.5103448 C27.5448276,28.5103448 27.5034483,28.5103448 27.4758621,28.5103448 L22.8413793,28.5103448 C20.1931034,28.5103448 17.7103448,27.2137931 16.2068966,25.0344828 C15.9310345,24.6344828 15.3793103,24.537931 14.9793103,24.8137931 C14.5793103,25.0896552 14.4827586,25.6413793 14.7586207,26.0413793 C16.5931034,28.7034483 19.6137931,30.2896552 22.8413793,30.2896552 L24.4137931,30.2896552 C22.9793103,31.0206897 21.3793103,31.4206897 19.737931,31.4206897 C14.0689655,31.4206897 9.47586207,26.8137931 9.47586207,21.1586207 C9.47586207,19.4896552 9.88965517,17.8344828 10.662069,16.3724138 C10.7862069,16.137931 10.8,15.862069 10.6896552,15.6137931 C10.5931034,15.3655172 10.3862069,15.1862069 10.1241379,15.1034483 C7.28275862,14.2482759 5.28275862,11.5862069 5.28275862,8.60689655 C5.29655172,4.84137931 8.34482759,1.79310345 12.0827586,1.79310345 C13.862069,1.79310345 15.5448276,2.48275862 16.8137931,3.72413793 C18.0137931,4.89655172 36.0965517,23.0896552 41.462069,28.5103448 L27.5724138,28.5103448 Z" id="Shape" fill="#FFFFFF"></path>
                    <path d="M9.71034483,5.55862069 C8.73103448,5.55862069 7.94482759,6.34482759 7.94482759,7.32413793 C7.94482759,8.30344828 8.73103448,9.08965517 9.71034483,9.08965517 C10.6896552,9.08965517 11.4758621,8.30344828 11.4758621,7.32413793 C11.4758621,6.35862069 10.6896552,5.55862069 9.71034483,5.55862069 Z" id="Shape" fill="#000000"></path>
                    <path d="M14.7862069,20.4413793 C14.7862069,19.9586207 14.3862069,19.5586207 13.9034483,19.5586207 C13.4206897,19.5586207 13.0206897,19.9586207 13.0206897,20.4413793 C13.0206897,21.1724138 13.1034483,21.9172414 13.2689655,22.6206897 C13.3655172,23.0344828 13.7241379,23.3103448 14.1241379,23.3103448 C14.1931034,23.3103448 14.2482759,23.2965517 14.3172414,23.2827586 C14.7862069,23.1724138 15.0896552,22.7034483 14.9793103,22.2206897 C14.8551724,21.6551724 14.7862069,21.0482759 14.7862069,20.4413793 Z" id="Shape" fill="#FFFFFF"></path>
                    <polygon id="Shape" fill="#FFFFFF" points="19.8758621 10.0965517 39.3517241 28.5103448 41.462069 28.5103448 19.5448276 6.45517241"></polygon>
                </g>
                <g id="waterfall-copy-2" transform="translate(16.000000, 117.000000)" fill="#FFFFFF">
                    <g id="Group">
                        <path d="M37.0454545,35.0757576 C36.1515152,35.969697 35.7121212,36.3636364 34.6969697,36.3636364 C33.6818182,36.3636364 33.2424242,35.969697 32.3484848,35.0757576 C31.3484848,34.0909091 30,32.7272727 27.4242424,32.7272727 C27.4242424,32.7272727 27.4242424,32.7272727 27.4242424,32.7272727 C24.8484848,32.7272727 23.5,34.0909091 22.5,35.0757576 C21.6060606,35.969697 21.1666667,36.3636364 20.1515152,36.3636364 C19.1363636,36.3636364 18.6969697,35.969697 17.8030303,35.0757576 C16.8030303,34.0909091 15.4545455,32.7272727 12.8787879,32.7272727 C12.8787879,32.7272727 12.8787879,32.7272727 12.8787879,32.7272727 C10.3030303,32.7272727 8.95454545,34.0909091 7.95454545,35.0757576 C7.06060606,35.969697 6.62121212,36.3636364 5.60606061,36.3636364 C5.60606061,36.3636364 5.60606061,36.3636364 5.60606061,36.3636364 C4.59090909,36.3636364 4.15151515,35.969697 3.25757576,35.0757576 C2.54545455,34.3636364 1.39393939,34.3636364 0.681818182,35.0757576 C-0.0303030303,35.7878788 -0.0303030303,36.9393939 0.681818182,37.6515152 C1.68181818,38.6363636 3.03030303,40 5.60606061,40 C8.18181818,40 9.53030303,38.6363636 10.530303,37.6515152 C11.4242424,36.7575758 11.8636364,36.3636364 12.8787879,36.3636364 C12.8787879,36.3636364 12.8787879,36.3636364 12.8787879,36.3636364 C13.8939394,36.3636364 14.3333333,36.7575758 15.2272727,37.6515152 C16.2272727,38.6363636 17.5757576,40 20.1515152,40 C22.7272727,40 24.0757576,38.6363636 25.0757576,37.6515152 C25.969697,36.7575758 26.4090909,36.3636364 27.4242424,36.3636364 C27.4242424,36.3636364 27.4242424,36.3636364 27.4242424,36.3636364 C28.4393939,36.3636364 28.8787879,36.7575758 29.7727273,37.6515152 C30.7727273,38.6363636 32.1212121,40 34.6969697,40 C34.6969697,40 34.6969697,40 34.6969697,40 C37.2727273,40 38.6212121,38.6363636 39.6212121,37.6515152 C40.3333333,36.9393939 40.3333333,35.7878788 39.6212121,35.0757576 C38.9090909,34.3636364 37.7575758,34.3636364 37.0454545,35.0757576 Z" id="Shape"></path>
                        <path d="M37.0454545,27.8030303 C36.1515152,28.6969697 35.7121212,29.0909091 34.6969697,29.0909091 C33.8939394,29.0909091 33.4545455,28.8484848 32.8787879,28.3181818 L32.8787879,3.63636364 L38.3333333,3.63636364 C39.3333333,3.63636364 40.1515152,2.81818182 40.1515152,1.81818182 C40.1515152,0.818181818 39.3333333,0 38.3333333,0 L31.0757576,0 C31.0757576,0 31.0757576,0 31.0606061,0 C31.0454545,0 31.0606061,0 31.0454545,0 L1.96969697,0 C0.96969697,0 0.151515152,0.818181818 0.151515152,1.81818182 C0.151515152,2.81818182 0.96969697,3.63636364 1.96969697,3.63636364 L7.42424242,3.63636364 L7.42424242,28.3181818 C6.84848485,28.8484848 6.40909091,29.0909091 5.60606061,29.0909091 C5.60606061,29.0909091 5.60606061,29.0909091 5.60606061,29.0909091 C4.59090909,29.0909091 4.15151515,28.6969697 3.25757576,27.8030303 C2.54545455,27.0909091 1.39393939,27.0909091 0.681818182,27.8030303 C-0.0303030303,28.5151515 -0.0303030303,29.6666667 0.681818182,30.3787879 C1.68181818,31.3636364 3.03030303,32.7272727 5.60606061,32.7272727 C8.18181818,32.7272727 9.53030303,31.3636364 10.530303,30.3787879 C11.4242424,29.4848485 11.8636364,29.0909091 12.8787879,29.0909091 C12.8787879,29.0909091 12.8787879,29.0909091 12.8787879,29.0909091 C13.8939394,29.0909091 14.3333333,29.4848485 15.2272727,30.3787879 C16.2272727,31.3636364 17.5757576,32.7272727 20.1515152,32.7272727 C22.7272727,32.7272727 24.0757576,31.3636364 25.0757576,30.3787879 C25.969697,29.4848485 26.4090909,29.0909091 27.4242424,29.0909091 C27.4242424,29.0909091 27.4242424,29.0909091 27.4242424,29.0909091 C28.4393939,29.0909091 28.8787879,29.4848485 29.7727273,30.3787879 C30.7727273,31.3636364 32.1212121,32.7272727 34.6969697,32.7272727 C34.6969697,32.7272727 34.6969697,32.7272727 34.6969697,32.7272727 C37.2727273,32.7272727 38.6212121,31.3636364 39.6212121,30.3787879 C40.3333333,29.6666667 40.3333333,28.5151515 39.6212121,27.8030303 C38.9090909,27.0909091 37.7575758,27.0909091 37.0454545,27.8030303 Z M22.5,27.8030303 C21.6060606,28.6969697 21.1666667,29.0909091 20.1515152,29.0909091 C19.1363636,29.0909091 18.6969697,28.6969697 17.8030303,27.8030303 C16.8030303,26.8181818 15.4545455,25.4545455 12.8787879,25.4545455 C12.8787879,25.4545455 12.8787879,25.4545455 12.8787879,25.4545455 C12.1969697,25.4545455 11.5909091,25.5454545 11.0606061,25.7121212 L11.0606061,3.63636364 L29.2424242,3.63636364 L29.2424242,25.7121212 C28.7121212,25.5454545 28.1212121,25.4545455 27.4242424,25.4545455 C27.4242424,25.4545455 27.4242424,25.4545455 27.4242424,25.4545455 C24.8484848,25.4545455 23.5,26.8181818 22.5,27.8030303 Z" id="Shape"></path>
                    </g>
                    <path d="M23.7878788,7.27272727 C22.7878788,7.27272727 21.969697,8.09090909 21.969697,9.09090909 L21.969697,15.1969697 C21.969697,16.1969697 22.7878788,17.0151515 23.7878788,17.0151515 C24.7878788,17.0151515 25.6060606,16.1969697 25.6060606,15.1969697 L25.6060606,9.09090909 C25.6060606,8.09090909 24.7878788,7.27272727 23.7878788,7.27272727 Z" id="Shape"></path>
                    <path d="M16.5151515,13.3333333 C15.5151515,13.3333333 14.6969697,14.1515152 14.6969697,15.1515152 L14.6969697,21.2575758 C14.6969697,22.2575758 15.5151515,23.0757576 16.5151515,23.0757576 C17.5151515,23.0757576 18.3333333,22.2575758 18.3333333,21.2575758 L18.3333333,15.1515152 C18.3333333,14.1515152 17.5151515,13.3333333 16.5151515,13.3333333 Z" id="Shape"></path>
                </g>
            </g>
            <g id="Group-3-Copy-2" transform="translate(362.000000, 78.500000) scale(-1, 1) translate(-362.000000, -78.500000) translate(242.000000, 0.000000)">
                <g id="arepa-copy" transform="translate(204.000000, 0.000000)" fill="#FFFFFF">
                    <path d="M35.8731707,17.9414634 C35.8731707,8.04878049 27.8243902,0 17.9414634,0 C8.04878049,0 1.08314441e-17,8.04878049 1.08314441e-17,17.9414634 C1.08314441e-17,18.6829268 0.0487804878,19.4146341 0.136585366,20.1463415 L0.0975609756,20.1463415 C0.0292682927,20.7707317 0,21.404878 0,22.0292683 C0,31.9219512 8.04878049,39.9707317 17.9414634,39.9707317 C27.8341463,39.9707317 35.8829268,31.9219512 35.8829268,22.0292683 C35.8829268,21.3365854 35.8439024,20.6536585 35.7658537,19.9804878 C35.8341463,19.3073171 35.8731707,18.6146341 35.8731707,17.9414634 Z M17.9414634,38.595122 C10.0780488,38.595122 3.47317073,33.0926829 1.78536585,25.7268293 C2.8097561,27.8536585 4.26341463,29.7756098 6.06829268,31.3756098 C9.34634146,34.2731707 13.5609756,35.8731707 17.9414634,35.8731707 C24.9853659,35.8731707 31.1707317,31.7853659 34.097561,25.7560976 C32.3902439,33.102439 25.795122,38.595122 17.9414634,38.595122 Z M34.4,19.8341463 L34.3707317,19.8341463 C34.3804878,19.8829268 34.3804878,19.9219512 34.3902439,19.9707317 C33.3756098,28.2634146 26.3121951,34.5073171 17.9414634,34.5073171 C13.8926829,34.5073171 10,33.0341463 6.96585366,30.3512195 C3.96097561,27.697561 2.0195122,24.0585366 1.50243902,20.1073171 C1.40487805,19.395122 1.36585366,18.6634146 1.36585366,17.9317073 C1.36585366,8.8 8.8,1.36585366 17.9414634,1.36585366 C27.0829268,1.36585366 34.5170732,8.8 34.5170732,17.9414634 C34.5073171,18.5756098 34.4780488,19.2097561 34.4,19.8341463 Z" id="Shape"></path>
                    <path d="M7.38536585,13.395122 L8.96585366,13.395122 C9.15121951,13.395122 9.30731707,13.5512195 9.30731707,13.7365854 L9.30731707,14.4097561 C9.30731707,14.595122 9.15121951,14.7512195 8.96585366,14.7512195 L7.38536585,14.7512195 C7.2,14.7512195 7.04390244,14.595122 7.04390244,14.4097561 L7.04390244,13.7365854 C7.03414634,13.5512195 7.1902439,13.395122 7.38536585,13.395122 Z" id="Shape"></path>
                    <path d="M10.097561,8.85853659 L11.697561,8.85853659 C11.8829268,8.85853659 12.0292683,9.00487805 12.0292683,9.1902439 L12.0292683,9.88292683 C12.0292683,10.0682927 11.8829268,10.2146341 11.697561,10.2146341 L10.097561,10.2146341 C9.91219512,10.2146341 9.76585366,10.0682927 9.76585366,9.88292683 L9.76585366,9.1902439 C9.76585366,9.00487805 9.91219512,8.85853659 10.097561,8.85853659 Z" id="Shape"></path>
                    <path d="M12.897561,12.5463415 L14.4780488,12.5463415 C14.6634146,12.5463415 14.8195122,12.702439 14.8195122,12.8878049 L14.8195122,13.5609756 C14.8195122,13.7463415 14.6634146,13.902439 14.4780488,13.902439 L12.897561,13.902439 C12.7121951,13.902439 12.5560976,13.7463415 12.5560976,13.5609756 L12.5560976,12.8878049 C12.5560976,12.6926829 12.7121951,12.5463415 12.897561,12.5463415 Z" id="Shape"></path>
                    <path d="M15.6195122,8 L17.2195122,8 C17.404878,8 17.5512195,8.14634146 17.5512195,8.33170732 L17.5512195,9.02439024 C17.5512195,9.2097561 17.404878,9.35609756 17.2195122,9.35609756 L15.6195122,9.35609756 C15.4341463,9.35609756 15.2878049,9.2097561 15.2878049,9.02439024 L15.2878049,8.33170732 C15.2878049,8.15609756 15.4341463,8 15.6195122,8 Z" id="Shape"></path>
                </g>
                <g id="arepa-copy-2" transform="translate(101.000000, 97.000000)" fill="#FFFFFF">
                    <path d="M35.8731707,17.9414634 C35.8731707,8.04878049 27.8243902,0 17.9414634,0 C8.04878049,0 1.08314441e-17,8.04878049 1.08314441e-17,17.9414634 C1.08314441e-17,18.6829268 0.0487804878,19.4146341 0.136585366,20.1463415 L0.0975609756,20.1463415 C0.0292682927,20.7707317 0,21.404878 0,22.0292683 C0,31.9219512 8.04878049,39.9707317 17.9414634,39.9707317 C27.8341463,39.9707317 35.8829268,31.9219512 35.8829268,22.0292683 C35.8829268,21.3365854 35.8439024,20.6536585 35.7658537,19.9804878 C35.8341463,19.3073171 35.8731707,18.6146341 35.8731707,17.9414634 Z M17.9414634,38.595122 C10.0780488,38.595122 3.47317073,33.0926829 1.78536585,25.7268293 C2.8097561,27.8536585 4.26341463,29.7756098 6.06829268,31.3756098 C9.34634146,34.2731707 13.5609756,35.8731707 17.9414634,35.8731707 C24.9853659,35.8731707 31.1707317,31.7853659 34.097561,25.7560976 C32.3902439,33.102439 25.795122,38.595122 17.9414634,38.595122 Z M34.4,19.8341463 L34.3707317,19.8341463 C34.3804878,19.8829268 34.3804878,19.9219512 34.3902439,19.9707317 C33.3756098,28.2634146 26.3121951,34.5073171 17.9414634,34.5073171 C13.8926829,34.5073171 10,33.0341463 6.96585366,30.3512195 C3.96097561,27.697561 2.0195122,24.0585366 1.50243902,20.1073171 C1.40487805,19.395122 1.36585366,18.6634146 1.36585366,17.9317073 C1.36585366,8.8 8.8,1.36585366 17.9414634,1.36585366 C27.0829268,1.36585366 34.5170732,8.8 34.5170732,17.9414634 C34.5073171,18.5756098 34.4780488,19.2097561 34.4,19.8341463 Z" id="Shape"></path>
                    <path d="M7.38536585,13.395122 L8.96585366,13.395122 C9.15121951,13.395122 9.30731707,13.5512195 9.30731707,13.7365854 L9.30731707,14.4097561 C9.30731707,14.595122 9.15121951,14.7512195 8.96585366,14.7512195 L7.38536585,14.7512195 C7.2,14.7512195 7.04390244,14.595122 7.04390244,14.4097561 L7.04390244,13.7365854 C7.03414634,13.5512195 7.1902439,13.395122 7.38536585,13.395122 Z" id="Shape"></path>
                    <path d="M10.097561,8.85853659 L11.697561,8.85853659 C11.8829268,8.85853659 12.0292683,9.00487805 12.0292683,9.1902439 L12.0292683,9.88292683 C12.0292683,10.0682927 11.8829268,10.2146341 11.697561,10.2146341 L10.097561,10.2146341 C9.91219512,10.2146341 9.76585366,10.0682927 9.76585366,9.88292683 L9.76585366,9.1902439 C9.76585366,9.00487805 9.91219512,8.85853659 10.097561,8.85853659 Z" id="Shape"></path>
                    <path d="M12.897561,12.5463415 L14.4780488,12.5463415 C14.6634146,12.5463415 14.8195122,12.702439 14.8195122,12.8878049 L14.8195122,13.5609756 C14.8195122,13.7463415 14.6634146,13.902439 14.4780488,13.902439 L12.897561,13.902439 C12.7121951,13.902439 12.5560976,13.7463415 12.5560976,13.5609756 L12.5560976,12.8878049 C12.5560976,12.6926829 12.7121951,12.5463415 12.897561,12.5463415 Z" id="Shape"></path>
                    <path d="M15.6195122,8 L17.2195122,8 C17.404878,8 17.5512195,8.14634146 17.5512195,8.33170732 L17.5512195,9.02439024 C17.5512195,9.2097561 17.404878,9.35609756 17.2195122,9.35609756 L15.6195122,9.35609756 C15.4341463,9.35609756 15.2878049,9.2097561 15.2878049,9.02439024 L15.2878049,8.33170732 C15.2878049,8.15609756 15.4341463,8 15.6195122,8 Z" id="Shape"></path>
                </g>
                <g id="arepa-copy-4" transform="translate(0.000000, 20.000000)" fill="#FFFFFF">
                    <path d="M35.8731707,17.9414634 C35.8731707,8.04878049 27.8243902,0 17.9414634,0 C8.04878049,0 1.08314441e-17,8.04878049 1.08314441e-17,17.9414634 C1.08314441e-17,18.6829268 0.0487804878,19.4146341 0.136585366,20.1463415 L0.0975609756,20.1463415 C0.0292682927,20.7707317 0,21.404878 0,22.0292683 C0,31.9219512 8.04878049,39.9707317 17.9414634,39.9707317 C27.8341463,39.9707317 35.8829268,31.9219512 35.8829268,22.0292683 C35.8829268,21.3365854 35.8439024,20.6536585 35.7658537,19.9804878 C35.8341463,19.3073171 35.8731707,18.6146341 35.8731707,17.9414634 Z M17.9414634,38.595122 C10.0780488,38.595122 3.47317073,33.0926829 1.78536585,25.7268293 C2.8097561,27.8536585 4.26341463,29.7756098 6.06829268,31.3756098 C9.34634146,34.2731707 13.5609756,35.8731707 17.9414634,35.8731707 C24.9853659,35.8731707 31.1707317,31.7853659 34.097561,25.7560976 C32.3902439,33.102439 25.795122,38.595122 17.9414634,38.595122 Z M34.4,19.8341463 L34.3707317,19.8341463 C34.3804878,19.8829268 34.3804878,19.9219512 34.3902439,19.9707317 C33.3756098,28.2634146 26.3121951,34.5073171 17.9414634,34.5073171 C13.8926829,34.5073171 10,33.0341463 6.96585366,30.3512195 C3.96097561,27.697561 2.0195122,24.0585366 1.50243902,20.1073171 C1.40487805,19.395122 1.36585366,18.6634146 1.36585366,17.9317073 C1.36585366,8.8 8.8,1.36585366 17.9414634,1.36585366 C27.0829268,1.36585366 34.5170732,8.8 34.5170732,17.9414634 C34.5073171,18.5756098 34.4780488,19.2097561 34.4,19.8341463 Z" id="Shape"></path>
                    <path d="M7.38536585,13.395122 L8.96585366,13.395122 C9.15121951,13.395122 9.30731707,13.5512195 9.30731707,13.7365854 L9.30731707,14.4097561 C9.30731707,14.595122 9.15121951,14.7512195 8.96585366,14.7512195 L7.38536585,14.7512195 C7.2,14.7512195 7.04390244,14.595122 7.04390244,14.4097561 L7.04390244,13.7365854 C7.03414634,13.5512195 7.1902439,13.395122 7.38536585,13.395122 Z" id="Shape"></path>
                    <path d="M10.097561,8.85853659 L11.697561,8.85853659 C11.8829268,8.85853659 12.0292683,9.00487805 12.0292683,9.1902439 L12.0292683,9.88292683 C12.0292683,10.0682927 11.8829268,10.2146341 11.697561,10.2146341 L10.097561,10.2146341 C9.91219512,10.2146341 9.76585366,10.0682927 9.76585366,9.88292683 L9.76585366,9.1902439 C9.76585366,9.00487805 9.91219512,8.85853659 10.097561,8.85853659 Z" id="Shape"></path>
                    <path d="M12.897561,12.5463415 L14.4780488,12.5463415 C14.6634146,12.5463415 14.8195122,12.702439 14.8195122,12.8878049 L14.8195122,13.5609756 C14.8195122,13.7463415 14.6634146,13.902439 14.4780488,13.902439 L12.897561,13.902439 C12.7121951,13.902439 12.5560976,13.7463415 12.5560976,13.5609756 L12.5560976,12.8878049 C12.5560976,12.6926829 12.7121951,12.5463415 12.897561,12.5463415 Z" id="Shape"></path>
                    <path d="M15.6195122,8 L17.2195122,8 C17.404878,8 17.5512195,8.14634146 17.5512195,8.33170732 L17.5512195,9.02439024 C17.5512195,9.2097561 17.404878,9.35609756 17.2195122,9.35609756 L15.6195122,9.35609756 C15.4341463,9.35609756 15.2878049,9.2097561 15.2878049,9.02439024 L15.2878049,8.33170732 C15.2878049,8.15609756 15.4341463,8 15.6195122,8 Z" id="Shape"></path>
                </g>
                <g id="bird" transform="translate(177.000000, 84.000000)">
                    <path d="M12.5793103,1.53103448 C8.51034483,1.53103448 5.1862069,4.85517241 5.1862069,8.92413793 C5.1862069,12.9931034 8.51034483,16.3172414 12.5793103,16.3172414 C16.662069,16.3172414 19.9724138,12.9931034 19.9724138,8.92413793 C19.9724138,4.84137931 16.6482759,1.53103448 12.5793103,1.53103448 Z" id="Shape" fill="#FFFFFF"></path>
                    <path d="M44.2068966,28.7724138 C43.2,27.7517241 19.462069,3.84827586 18.0413793,2.46896552 C16.4413793,0.896551724 14.3172414,0.0413793103 12.0689655,0.0413793103 C8.0137931,0.0413793103 4.60689655,2.88275862 3.73793103,6.67586207 L0.482758621,8.30344828 C0.193103448,8.45517241 0,8.75862069 0,9.08965517 C0,9.42068966 0.193103448,9.72413793 0.482758621,9.87586207 L4.0137931,11.6413793 C4.04137931,11.6551724 4.06896552,11.6689655 4.11034483,11.6827586 C4.4,12.4 4.77241379,13.0896552 5.25517241,13.7241379 C6.13793103,14.8965517 7.32413793,15.8206897 8.66206897,16.4137931 C8.02758621,17.8896552 7.71034483,19.5034483 7.71034483,21.1172414 C7.71034483,27.7517241 13.1034483,33.1448276 19.737931,33.1448276 C19.9172414,33.1448276 20.1103448,33.1448276 20.2896552,33.1310345 L20.2896552,38.2068966 L15.8758621,38.2068966 C15.3931034,38.2068966 14.9931034,38.6068966 14.9931034,39.0896552 C14.9931034,39.5724138 15.3931034,39.9724138 15.8758621,39.9724138 L22.937931,39.9724138 C23.4206897,39.9724138 23.8206897,39.5724138 23.8206897,39.0896552 C23.8206897,38.6068966 23.4206897,38.2068966 22.937931,38.2068966 L22.0689655,38.2068966 L22.0689655,32.9103448 C24.0827586,32.5103448 25.9862069,31.6 27.5586207,30.2482759 L43.5862069,30.2482759 C43.9448276,30.2482759 44.262069,30.0275862 44.4,29.7103448 C44.537931,29.4068966 44.4689655,29.0206897 44.2068966,28.7724138 Z M2.85517241,9.08965517 L3.53103448,8.74482759 C3.53103448,8.97931034 3.54482759,9.2137931 3.57241379,9.44827586 L2.85517241,9.08965517 Z M27.5724138,28.5103448 C27.5448276,28.5103448 27.5034483,28.5103448 27.4758621,28.5103448 L22.8413793,28.5103448 C20.1931034,28.5103448 17.7103448,27.2137931 16.2068966,25.0344828 C15.9310345,24.6344828 15.3793103,24.537931 14.9793103,24.8137931 C14.5793103,25.0896552 14.4827586,25.6413793 14.7586207,26.0413793 C16.5931034,28.7034483 19.6137931,30.2896552 22.8413793,30.2896552 L24.4137931,30.2896552 C22.9793103,31.0206897 21.3793103,31.4206897 19.737931,31.4206897 C14.0689655,31.4206897 9.47586207,26.8137931 9.47586207,21.1586207 C9.47586207,19.4896552 9.88965517,17.8344828 10.662069,16.3724138 C10.7862069,16.137931 10.8,15.862069 10.6896552,15.6137931 C10.5931034,15.3655172 10.3862069,15.1862069 10.1241379,15.1034483 C7.28275862,14.2482759 5.28275862,11.5862069 5.28275862,8.60689655 C5.29655172,4.84137931 8.34482759,1.79310345 12.0827586,1.79310345 C13.862069,1.79310345 15.5448276,2.48275862 16.8137931,3.72413793 C18.0137931,4.89655172 36.0965517,23.0896552 41.462069,28.5103448 L27.5724138,28.5103448 Z" id="Shape" fill="#FFFFFF"></path>
                    <path d="M9.71034483,5.55862069 C8.73103448,5.55862069 7.94482759,6.34482759 7.94482759,7.32413793 C7.94482759,8.30344828 8.73103448,9.08965517 9.71034483,9.08965517 C10.6896552,9.08965517 11.4758621,8.30344828 11.4758621,7.32413793 C11.4758621,6.35862069 10.6896552,5.55862069 9.71034483,5.55862069 Z" id="Shape" fill="#000000"></path>
                    <path d="M14.7862069,20.4413793 C14.7862069,19.9586207 14.3862069,19.5586207 13.9034483,19.5586207 C13.4206897,19.5586207 13.0206897,19.9586207 13.0206897,20.4413793 C13.0206897,21.1724138 13.1034483,21.9172414 13.2689655,22.6206897 C13.3655172,23.0344828 13.7241379,23.3103448 14.1241379,23.3103448 C14.1931034,23.3103448 14.2482759,23.2965517 14.3172414,23.2827586 C14.7862069,23.1724138 15.0896552,22.7034483 14.9793103,22.2206897 C14.8551724,21.6551724 14.7862069,21.0482759 14.7862069,20.4413793 Z" id="Shape" fill="#FFFFFF"></path>
                    <polygon id="Shape" fill="#FFFFFF" points="19.8758621 10.0965517 39.3517241 28.5103448 41.462069 28.5103448 19.5448276 6.45517241"></polygon>
                </g>
                <g id="bird-copy-2" transform="translate(114.500000, 40.000000) scale(-1, 1) translate(-114.500000, -40.000000) translate(92.000000, 20.000000)">
                    <path d="M12.5793103,1.53103448 C8.51034483,1.53103448 5.1862069,4.85517241 5.1862069,8.92413793 C5.1862069,12.9931034 8.51034483,16.3172414 12.5793103,16.3172414 C16.662069,16.3172414 19.9724138,12.9931034 19.9724138,8.92413793 C19.9724138,4.84137931 16.6482759,1.53103448 12.5793103,1.53103448 Z" id="Shape" fill="#FFFFFF"></path>
                    <path d="M44.2068966,28.7724138 C43.2,27.7517241 19.462069,3.84827586 18.0413793,2.46896552 C16.4413793,0.896551724 14.3172414,0.0413793103 12.0689655,0.0413793103 C8.0137931,0.0413793103 4.60689655,2.88275862 3.73793103,6.67586207 L0.482758621,8.30344828 C0.193103448,8.45517241 0,8.75862069 0,9.08965517 C0,9.42068966 0.193103448,9.72413793 0.482758621,9.87586207 L4.0137931,11.6413793 C4.04137931,11.6551724 4.06896552,11.6689655 4.11034483,11.6827586 C4.4,12.4 4.77241379,13.0896552 5.25517241,13.7241379 C6.13793103,14.8965517 7.32413793,15.8206897 8.66206897,16.4137931 C8.02758621,17.8896552 7.71034483,19.5034483 7.71034483,21.1172414 C7.71034483,27.7517241 13.1034483,33.1448276 19.737931,33.1448276 C19.9172414,33.1448276 20.1103448,33.1448276 20.2896552,33.1310345 L20.2896552,38.2068966 L15.8758621,38.2068966 C15.3931034,38.2068966 14.9931034,38.6068966 14.9931034,39.0896552 C14.9931034,39.5724138 15.3931034,39.9724138 15.8758621,39.9724138 L22.937931,39.9724138 C23.4206897,39.9724138 23.8206897,39.5724138 23.8206897,39.0896552 C23.8206897,38.6068966 23.4206897,38.2068966 22.937931,38.2068966 L22.0689655,38.2068966 L22.0689655,32.9103448 C24.0827586,32.5103448 25.9862069,31.6 27.5586207,30.2482759 L43.5862069,30.2482759 C43.9448276,30.2482759 44.262069,30.0275862 44.4,29.7103448 C44.537931,29.4068966 44.4689655,29.0206897 44.2068966,28.7724138 Z M2.85517241,9.08965517 L3.53103448,8.74482759 C3.53103448,8.97931034 3.54482759,9.2137931 3.57241379,9.44827586 L2.85517241,9.08965517 Z M27.5724138,28.5103448 C27.5448276,28.5103448 27.5034483,28.5103448 27.4758621,28.5103448 L22.8413793,28.5103448 C20.1931034,28.5103448 17.7103448,27.2137931 16.2068966,25.0344828 C15.9310345,24.6344828 15.3793103,24.537931 14.9793103,24.8137931 C14.5793103,25.0896552 14.4827586,25.6413793 14.7586207,26.0413793 C16.5931034,28.7034483 19.6137931,30.2896552 22.8413793,30.2896552 L24.4137931,30.2896552 C22.9793103,31.0206897 21.3793103,31.4206897 19.737931,31.4206897 C14.0689655,31.4206897 9.47586207,26.8137931 9.47586207,21.1586207 C9.47586207,19.4896552 9.88965517,17.8344828 10.662069,16.3724138 C10.7862069,16.137931 10.8,15.862069 10.6896552,15.6137931 C10.5931034,15.3655172 10.3862069,15.1862069 10.1241379,15.1034483 C7.28275862,14.2482759 5.28275862,11.5862069 5.28275862,8.60689655 C5.29655172,4.84137931 8.34482759,1.79310345 12.0827586,1.79310345 C13.862069,1.79310345 15.5448276,2.48275862 16.8137931,3.72413793 C18.0137931,4.89655172 36.0965517,23.0896552 41.462069,28.5103448 L27.5724138,28.5103448 Z" id="Shape" fill="#FFFFFF"></path>
                    <path d="M9.71034483,5.55862069 C8.73103448,5.55862069 7.94482759,6.34482759 7.94482759,7.32413793 C7.94482759,8.30344828 8.73103448,9.08965517 9.71034483,9.08965517 C10.6896552,9.08965517 11.4758621,8.30344828 11.4758621,7.32413793 C11.4758621,6.35862069 10.6896552,5.55862069 9.71034483,5.55862069 Z" id="Shape" fill="#000000"></path>
                    <path d="M14.7862069,20.4413793 C14.7862069,19.9586207 14.3862069,19.5586207 13.9034483,19.5586207 C13.4206897,19.5586207 13.0206897,19.9586207 13.0206897,20.4413793 C13.0206897,21.1724138 13.1034483,21.9172414 13.2689655,22.6206897 C13.3655172,23.0344828 13.7241379,23.3103448 14.1241379,23.3103448 C14.1931034,23.3103448 14.2482759,23.2965517 14.3172414,23.2827586 C14.7862069,23.1724138 15.0896552,22.7034483 14.9793103,22.2206897 C14.8551724,21.6551724 14.7862069,21.0482759 14.7862069,20.4413793 Z" id="Shape" fill="#FFFFFF"></path>
                    <polygon id="Shape" fill="#FFFFFF" points="19.8758621 10.0965517 39.3517241 28.5103448 41.462069 28.5103448 19.5448276 6.45517241"></polygon>
                </g>
                <g id="waterfall-copy-2" transform="translate(16.000000, 117.000000)" fill="#FFFFFF">
                    <g id="Group">
                        <path d="M37.0454545,35.0757576 C36.1515152,35.969697 35.7121212,36.3636364 34.6969697,36.3636364 C33.6818182,36.3636364 33.2424242,35.969697 32.3484848,35.0757576 C31.3484848,34.0909091 30,32.7272727 27.4242424,32.7272727 C27.4242424,32.7272727 27.4242424,32.7272727 27.4242424,32.7272727 C24.8484848,32.7272727 23.5,34.0909091 22.5,35.0757576 C21.6060606,35.969697 21.1666667,36.3636364 20.1515152,36.3636364 C19.1363636,36.3636364 18.6969697,35.969697 17.8030303,35.0757576 C16.8030303,34.0909091 15.4545455,32.7272727 12.8787879,32.7272727 C12.8787879,32.7272727 12.8787879,32.7272727 12.8787879,32.7272727 C10.3030303,32.7272727 8.95454545,34.0909091 7.95454545,35.0757576 C7.06060606,35.969697 6.62121212,36.3636364 5.60606061,36.3636364 C5.60606061,36.3636364 5.60606061,36.3636364 5.60606061,36.3636364 C4.59090909,36.3636364 4.15151515,35.969697 3.25757576,35.0757576 C2.54545455,34.3636364 1.39393939,34.3636364 0.681818182,35.0757576 C-0.0303030303,35.7878788 -0.0303030303,36.9393939 0.681818182,37.6515152 C1.68181818,38.6363636 3.03030303,40 5.60606061,40 C8.18181818,40 9.53030303,38.6363636 10.530303,37.6515152 C11.4242424,36.7575758 11.8636364,36.3636364 12.8787879,36.3636364 C12.8787879,36.3636364 12.8787879,36.3636364 12.8787879,36.3636364 C13.8939394,36.3636364 14.3333333,36.7575758 15.2272727,37.6515152 C16.2272727,38.6363636 17.5757576,40 20.1515152,40 C22.7272727,40 24.0757576,38.6363636 25.0757576,37.6515152 C25.969697,36.7575758 26.4090909,36.3636364 27.4242424,36.3636364 C27.4242424,36.3636364 27.4242424,36.3636364 27.4242424,36.3636364 C28.4393939,36.3636364 28.8787879,36.7575758 29.7727273,37.6515152 C30.7727273,38.6363636 32.1212121,40 34.6969697,40 C34.6969697,40 34.6969697,40 34.6969697,40 C37.2727273,40 38.6212121,38.6363636 39.6212121,37.6515152 C40.3333333,36.9393939 40.3333333,35.7878788 39.6212121,35.0757576 C38.9090909,34.3636364 37.7575758,34.3636364 37.0454545,35.0757576 Z" id="Shape"></path>
                        <path d="M37.0454545,27.8030303 C36.1515152,28.6969697 35.7121212,29.0909091 34.6969697,29.0909091 C33.8939394,29.0909091 33.4545455,28.8484848 32.8787879,28.3181818 L32.8787879,3.63636364 L38.3333333,3.63636364 C39.3333333,3.63636364 40.1515152,2.81818182 40.1515152,1.81818182 C40.1515152,0.818181818 39.3333333,0 38.3333333,0 L31.0757576,0 C31.0757576,0 31.0757576,0 31.0606061,0 C31.0454545,0 31.0606061,0 31.0454545,0 L1.96969697,0 C0.96969697,0 0.151515152,0.818181818 0.151515152,1.81818182 C0.151515152,2.81818182 0.96969697,3.63636364 1.96969697,3.63636364 L7.42424242,3.63636364 L7.42424242,28.3181818 C6.84848485,28.8484848 6.40909091,29.0909091 5.60606061,29.0909091 C5.60606061,29.0909091 5.60606061,29.0909091 5.60606061,29.0909091 C4.59090909,29.0909091 4.15151515,28.6969697 3.25757576,27.8030303 C2.54545455,27.0909091 1.39393939,27.0909091 0.681818182,27.8030303 C-0.0303030303,28.5151515 -0.0303030303,29.6666667 0.681818182,30.3787879 C1.68181818,31.3636364 3.03030303,32.7272727 5.60606061,32.7272727 C8.18181818,32.7272727 9.53030303,31.3636364 10.530303,30.3787879 C11.4242424,29.4848485 11.8636364,29.0909091 12.8787879,29.0909091 C12.8787879,29.0909091 12.8787879,29.0909091 12.8787879,29.0909091 C13.8939394,29.0909091 14.3333333,29.4848485 15.2272727,30.3787879 C16.2272727,31.3636364 17.5757576,32.7272727 20.1515152,32.7272727 C22.7272727,32.7272727 24.0757576,31.3636364 25.0757576,30.3787879 C25.969697,29.4848485 26.4090909,29.0909091 27.4242424,29.0909091 C27.4242424,29.0909091 27.4242424,29.0909091 27.4242424,29.0909091 C28.4393939,29.0909091 28.8787879,29.4848485 29.7727273,30.3787879 C30.7727273,31.3636364 32.1212121,32.7272727 34.6969697,32.7272727 C34.6969697,32.7272727 34.6969697,32.7272727 34.6969697,32.7272727 C37.2727273,32.7272727 38.6212121,31.3636364 39.6212121,30.3787879 C40.3333333,29.6666667 40.3333333,28.5151515 39.6212121,27.8030303 C38.9090909,27.0909091 37.7575758,27.0909091 37.0454545,27.8030303 Z M22.5,27.8030303 C21.6060606,28.6969697 21.1666667,29.0909091 20.1515152,29.0909091 C19.1363636,29.0909091 18.6969697,28.6969697 17.8030303,27.8030303 C16.8030303,26.8181818 15.4545455,25.4545455 12.8787879,25.4545455 C12.8787879,25.4545455 12.8787879,25.4545455 12.8787879,25.4545455 C12.1969697,25.4545455 11.5909091,25.5454545 11.0606061,25.7121212 L11.0606061,3.63636364 L29.2424242,3.63636364 L29.2424242,25.7121212 C28.7121212,25.5454545 28.1212121,25.4545455 27.4242424,25.4545455 C27.4242424,25.4545455 27.4242424,25.4545455 27.4242424,25.4545455 C24.8484848,25.4545455 23.5,26.8181818 22.5,27.8030303 Z" id="Shape"></path>
                    </g>
                    <path d="M23.7878788,7.27272727 C22.7878788,7.27272727 21.969697,8.09090909 21.969697,9.09090909 L21.969697,15.1969697 C21.969697,16.1969697 22.7878788,17.0151515 23.7878788,17.0151515 C24.7878788,17.0151515 25.6060606,16.1969697 25.6060606,15.1969697 L25.6060606,9.09090909 C25.6060606,8.09090909 24.7878788,7.27272727 23.7878788,7.27272727 Z" id="Shape"></path>
                    <path d="M16.5151515,13.3333333 C15.5151515,13.3333333 14.6969697,14.1515152 14.6969697,15.1515152 L14.6969697,21.2575758 C14.6969697,22.2575758 15.5151515,23.0757576 16.5151515,23.0757576 C17.5151515,23.0757576 18.3333333,22.2575758 18.3333333,21.2575758 L18.3333333,15.1515152 C18.3333333,14.1515152 17.5151515,13.3333333 16.5151515,13.3333333 Z" id="Shape"></path>
                </g>
            </g>
        </g>
    </g>
</svg>